<svg
  width="68"
  height="90"
  viewBox="0 0 68 90"
  fill="none"
  xmlns="http://www.w3.org/2000/svg"
>
  <path
    fill-rule="evenodd"
    clip-rule="evenodd"
    d="M67.9998 0H0V73V73.3382L33.9999 89.958L67.9998 73.3382V0ZM0 73L8 65L8.19799 65.198L0.19799 73.198L0 73ZM8.37517 8.06999H60.2347V64.7773L60.2069 64.8014L34.3049 77.6056L8.37517 64.7877V8.06999ZM60.2365 65.0974L34.3049 77.9163L8.09668 64.9607V8.06999V7.7915H8.37517H60.2347H60.5132V8.06999V64.9607L60.496 64.9692L67.7109 73.269L67.4996 73.4527L60.2365 65.0974Z"
    fill="white"
  />
  <path
    d="M24.173 33.56C23.5185 33.56 22.9405 33.4495 22.439 33.2285C21.9375 32.999 21.5423 32.676 21.2533 32.2595C20.9643 31.8345 20.8155 31.3202 20.807 30.7167H22.5283C22.5453 31.1332 22.694 31.486 22.9745 31.775C23.2635 32.0555 23.6588 32.1957 24.1603 32.1957C24.5938 32.1957 24.938 32.0937 25.193 31.8897C25.448 31.6772 25.5755 31.3967 25.5755 31.0482C25.5755 30.6827 25.4608 30.398 25.2313 30.194C25.0103 29.99 24.7128 29.8242 24.3388 29.6967C23.9648 29.5692 23.5653 29.4332 23.1403 29.2887C22.4518 29.0507 21.9248 28.7447 21.5593 28.3708C21.2023 27.9968 21.0238 27.4995 21.0238 26.879C21.0153 26.352 21.1385 25.9015 21.3935 25.5275C21.657 25.145 22.014 24.8518 22.4645 24.6478C22.915 24.4353 23.4335 24.329 24.02 24.329C24.615 24.329 25.1378 24.4353 25.5883 24.6478C26.0473 24.8603 26.4043 25.1578 26.6593 25.5403C26.9228 25.9228 27.063 26.3775 27.08 26.9045H25.3333C25.3248 26.59 25.2015 26.3138 24.9635 26.0758C24.734 25.8293 24.411 25.706 23.9945 25.706C23.6375 25.6975 23.3358 25.7868 23.0893 25.9738C22.8513 26.1523 22.7323 26.4158 22.7323 26.7643C22.7323 27.0618 22.8258 27.2998 23.0128 27.4783C23.1998 27.6483 23.4548 27.7928 23.7778 27.9118C24.1008 28.0308 24.4705 28.1583 24.887 28.2943C25.329 28.4472 25.7328 28.6257 26.0983 28.8297C26.4638 29.0337 26.757 29.3057 26.978 29.6457C27.199 29.9772 27.3095 30.4065 27.3095 30.9335C27.3095 31.401 27.1905 31.8345 26.9525 32.234C26.7145 32.6335 26.3618 32.9565 25.8943 33.203C25.4268 33.441 24.853 33.56 24.173 33.56ZM29.8071 33.407V25.7953H27.2061V24.482H34.0528V25.7953H31.4391V33.407H29.8071ZM32.8493 33.407L36.1133 24.482H37.9493L41.2132 33.407H39.4792L38.7652 31.3415H35.2845L34.5578 33.407H32.8493ZM35.7308 30.0665H38.319L37.0185 26.3563L35.7308 30.0665ZM42.7447 33.407V30.2322L39.7485 24.482H41.5972L43.5735 28.6002L45.537 24.482H47.3602L44.3767 30.2322V33.407H42.7447Z"
    fill="black"
  />
  <path
    d="M18.7128 53.907V36.2752H30.0979V38.8696H21.9369V43.8065H28.5362V46.3505H21.9369V53.907H18.7128ZM31.0747 53.907V36.2752H34.2988V53.907H31.0747ZM40.3105 53.907V38.8696H35.1721V36.2752H48.6982V38.8696H43.5346V53.907H40.3105Z"
    fill="black"
  />
</svg>
